<svg width="20.000000" height="20.000000" viewBox="0 0 20 20" fill="none" xmlns="http://www.w3.org/2000/svg" xmlns:xlink="http://www.w3.org/1999/xlink">
	<desc>
			Created with Pixso.
	</desc>
	<defs/>
	<rect width="20.000000" height="20.000000" fill="#FFFFFF" fill-opacity="0"/>
	<path d="M13.2 7.69995C13.2 4.66235 10.7375 2.19995 7.69995 2.19995C4.66238 2.19995 2.19995 4.66235 2.19995 7.69995C2.19995 10.7375 4.66238 13.2 7.69995 13.2C10.7375 13.2 13.2 10.7375 13.2 7.69995Z" stroke="#000000" stroke-opacity="1.000000" stroke-width="3.000000" stroke-linejoin="round"/>
	<path d="M15.6711 19.3878L11.9809 15.1704L10.0711 12.9878L12.3288 11.0122L14.2386 13.1948L17.9288 17.4122L15.6711 19.3878ZM17.9006 17.4104L17.9288 17.4122C18.482 18.0444 18.4199 18.9757 17.7877 19.5288C17.1555 20.082 16.2242 20.0199 15.6711 19.3878L15.673 19.3595L17.9006 17.4104Z" fill="#000000" fill-opacity="1.000000" fill-rule="evenodd"/>
</svg>
