<svg width="20.000000" height="16.281250" viewBox="0 0 20 16.2812" fill="none" xmlns="http://www.w3.org/2000/svg" xmlns:xlink="http://www.w3.org/1999/xlink">
	<desc>
			Created with Pixso.
	</desc>
	<defs/>
	<path id="Vector" d="M20 1.95068C19.2484 2.27661 18.4534 2.49219 17.64 2.59058C18.4982 2.07788 19.1413 1.27148 19.45 0.320557C18.6436 0.800781 17.7607 1.13892 16.84 1.32056C16.2245 0.653076 15.405 0.208984 14.5098 0.057373C13.6146 -0.0939941 12.6945 0.0559082 11.8938 0.483887C11.093 0.911621 10.4569 1.59302 10.0853 2.42139C9.71356 3.24976 9.62732 4.17798 9.84003 5.06055C8.20941 4.97803 6.61444 4.55347 5.15863 3.81445C3.70288 3.07544 2.41882 2.03833 1.39001 0.770508C1.02911 1.40088 0.839539 2.1145 0.840027 2.84058C0.838745 3.51489 1.00421 4.1792 1.32178 4.77417C1.63928 5.36914 2.099 5.87622 2.65997 6.25049C2.008 6.23291 1.36987 6.05786 0.799988 5.74048L0.799988 5.79053C0.804871 6.7356 1.13599 7.64966 1.7373 8.37866C2.33862 9.10742 3.17328 9.6062 4.09998 9.79053C3.74323 9.89917 3.37286 9.9563 3 9.96069C2.74188 9.95752 2.48444 9.93408 2.22998 9.89062C2.4939 10.7034 3.00464 11.4138 3.6911 11.9229C4.3775 12.4319 5.20557 12.7141 6.06 12.7307C4.61719 13.866 2.83588 14.4854 1 14.4907C0.66571 14.4917 0.331726 14.4717 0 14.4307C1.87445 15.6409 4.05884 16.2832 6.28998 16.2805C7.82971 16.2966 9.35712 16.0056 10.7831 15.4246C12.2091 14.8438 13.505 13.9844 14.5952 12.8972C15.6854 11.8098 16.548 10.5161 17.1326 9.09155C17.7172 7.66699 18.012 6.14038 18 4.60059C18 4.43066 18 4.25049 18 4.07056C18.7847 3.48535 19.4615 2.76807 20 1.95068Z" fill="#FFFFFF" fill-opacity="1.000000" fill-rule="nonzero"/>
</svg>
